<svg width="225" height="544" viewBox="0 0 225 544" fill="none" xmlns="http://www.w3.org/2000/svg">
<path d="M108.684 433.419C108.684 425.055 107.614 419.447 106.572 413.997C105.372 407.721 104.211 401.656 104.83 392.015C105.468 382.1 105.906 372.666 106.341 363.291L106.342 363.288C107.117 346.605 107.883 330.11 109.746 311.485C109.944 309.502 110.327 302.42 110.668 296.109V296.107L110.669 296.099C110.798 293.717 110.92 291.45 111.024 289.626L98.6547 292.639C84.3294 296.127 69.2468 294.369 56.1293 287.714C55.8932 297.565 57.9604 307.611 59.9985 317.481C60.7664 321.2 61.5299 324.895 62.1537 328.521C65.1154 345.743 70.1451 371.931 72.2211 382.739V382.742L72.2231 382.747L72.2241 382.755C72.2246 382.758 72.2255 382.761 72.226 382.764C72.7798 385.647 73.1288 387.464 73.1625 387.68C74.1354 393.903 73.6763 399.896 73.1938 406.259C72.5772 414.389 71.9101 423.231 73.9594 434.354C75.692 443.761 78.5063 453.279 81.2201 462.454C83.6682 470.731 86.0385 478.743 87.4145 486.059C88.7886 493.365 89.1973 500.097 87.6303 505.792C87.2251 507.265 85.9305 510.36 84.5366 513.701L84.5346 513.707C83.9504 515.107 83.3411 516.566 82.7573 517.999C81.8699 520.177 80.8411 523.519 80.3774 525.423C79.772 527.908 79.423 530.073 80.5512 531.863C81.0428 532.643 83.2481 535.905 87.1371 538.224C89.9749 539.915 92.0162 540.821 93.3266 541.301C93.9813 541.54 94.4531 541.674 94.7504 541.746C94.8991 541.782 95.0044 541.802 95.0668 541.813C95.0979 541.819 95.1183 541.823 95.1283 541.824C95.1326 541.825 95.1361 541.825 95.1362 541.825L95.1342 541.824L95.1401 541.825L95.1537 541.827C96.7838 542.056 98.6873 541.711 99.9614 540.712C101.129 539.797 102.175 538.34 103 536.798C103.821 535.263 104.374 533.736 104.597 532.761C105.159 530.307 105.177 527.789 105.187 526.009C105.189 525.591 105.192 525.203 105.202 524.875C105.278 522.385 105.532 519.911 105.787 517.428C105.937 515.963 106.088 514.495 106.205 512.999L106.21 512.958C106.212 512.935 106.212 512.914 106.213 512.894L106.214 512.875L106.215 512.857C106.275 512.096 106.339 509.794 106.406 507.381V507.373C106.442 506.055 106.48 504.718 106.517 503.614C106.527 503.325 106.542 503.015 106.558 502.695C106.604 501.777 106.656 500.731 106.614 499.558L106.589 499.047C106.565 498.638 106.513 498.218 106.449 497.783C106.368 497.236 106.315 496.863 106.247 496.333C104.829 485.159 105.891 473.664 107.016 461.446C107.832 452.584 108.684 443.321 108.684 433.419ZM74.9047 87.9219C71.564 88.7096 67.9015 89.5733 63.9936 90.6895L63.9682 90.6963L63.9428 90.7021C56.5496 92.3991 51.6578 97.5306 48.4057 103.772C45.1471 110.027 43.5875 117.307 42.8481 123.071C42.8462 123.086 42.8418 123.101 42.8393 123.115C42.6527 124.722 38.3515 161.798 37.6371 171.283C37.6369 171.288 37.6365 171.295 37.6362 171.304C37.6354 171.321 37.6338 171.346 37.6323 171.378C37.6292 171.443 37.6251 171.537 37.6186 171.659C37.6056 171.903 37.5853 172.256 37.5561 172.696C37.4976 173.576 37.4026 174.803 37.2582 176.197C36.9712 178.969 36.4814 182.463 35.6645 185.188C34.0734 190.495 32.2452 195.342 29.808 201.138C26.7627 208.381 25.9305 212.608 24.7778 218.466C24.6732 218.997 24.5653 219.542 24.4535 220.104L18.7035 261.202L18.5512 262.305C18.3192 263.986 17.6646 265.616 16.5717 266.996C15.8133 267.954 15.1514 268.442 14.5004 268.924C13.6744 269.535 12.7538 270.21 11.2787 272.166C8.67936 275.836 7.36761 278.549 5.92425 281.535C4.88469 283.686 3.77383 285.981 2.07952 288.834C2.03965 288.917 2.02108 288.977 2.01116 289.017C2.0363 289.031 2.07271 289.051 2.12639 289.072C2.29727 289.138 2.51663 289.179 2.71917 289.199C2.81475 289.209 2.89634 289.212 2.95159 289.214C2.97882 289.215 2.99927 289.216 3.01116 289.216C3.01444 289.216 3.01706 289.216 3.01897 289.216L3.0346 289.215L3.04925 289.216C4.0051 289.227 5.10106 288.447 6.29339 286.916C7.43752 285.447 8.44457 283.584 9.2885 282.018C9.7611 281.14 10.2055 280.311 10.5785 279.769L10.5864 279.758L10.5942 279.746C10.7096 279.588 10.8204 279.48 10.9106 279.398L10.9135 279.396C10.9846 279.332 11.1 279.244 11.2504 279.175C11.363 279.123 11.6318 279.018 11.9633 279.077L12.1088 279.113L12.1616 279.13L12.2114 279.152C12.5864 279.319 12.7795 279.631 12.8539 279.896C12.9184 280.125 12.8987 280.323 12.8832 280.421L12.8823 280.428L12.7895 280.99C12.66 281.777 12.5364 282.531 12.4428 283.102C12.396 283.387 12.3569 283.627 12.3285 283.802C12.3144 283.889 12.3027 283.96 12.2944 284.012C12.2902 284.038 12.287 284.059 12.2846 284.074C12.2824 284.088 12.2809 284.094 12.2807 284.096C12.2403 284.382 12.1774 284.81 12.0951 285.334L12.0942 285.341C11.9353 286.306 11.7054 287.573 11.4408 289.036V289.041L11.4399 289.042C11.2772 289.941 11.1014 290.918 10.9184 291.95L10.9164 291.962L10.9135 291.973L10.9125 291.975L10.9135 291.976C10.9097 291.994 10.906 292.014 10.9018 292.035L10.8998 292.043L10.8959 292.06C10.8942 292.071 10.8941 292.084 10.892 292.096C10.8479 292.343 10.8034 292.594 10.7592 292.849C10.5032 294.31 9.95698 297.825 9.47307 300.987C9.23161 302.565 9.00623 304.051 8.84124 305.143C8.75874 305.688 8.69172 306.136 8.64495 306.446C8.62156 306.602 8.60362 306.723 8.59124 306.806C8.58508 306.847 8.57976 306.878 8.57659 306.899C8.57538 306.907 8.57441 306.914 8.57366 306.919L8.57268 306.928C8.57151 306.938 8.56999 306.956 8.5678 306.98C8.56333 307.031 8.5579 307.108 8.55608 307.203C8.55237 307.398 8.56402 307.644 8.61468 307.884C8.71855 308.375 8.90972 308.6 9.25921 308.662L9.45843 308.684C9.63655 308.688 9.75603 308.648 9.84026 308.604C9.96766 308.538 10.0895 308.422 10.2016 308.254C10.3138 308.085 10.3937 307.898 10.4457 307.742C10.4709 307.667 10.4878 307.605 10.4975 307.565C10.5017 307.548 10.5047 307.536 10.5063 307.528L10.5082 307.517L10.5112 307.506V307.503C10.5115 307.501 10.5124 307.498 10.5131 307.495C10.5145 307.488 10.5162 307.478 10.519 307.464C10.5246 307.436 10.5334 307.395 10.5444 307.342C10.5663 307.235 10.5982 307.077 10.6391 306.877C10.721 306.476 10.8387 305.901 10.9799 305.209C11.2623 303.825 11.6399 301.971 12.0229 300.088C12.7918 296.308 13.5717 292.455 13.6469 292.019C13.7837 291.224 14.0125 290.647 14.3676 290.27C14.5568 290.069 14.7762 289.931 15.0102 289.859C15.2377 289.79 15.4222 289.8 15.5033 289.808H15.5092L15.5121 289.809C16.1495 289.868 16.4793 290.329 16.6147 290.645C16.7421 290.942 16.7737 291.256 16.7826 291.467C16.7924 291.696 16.779 291.912 16.7651 292.062C16.7579 292.14 16.7498 292.205 16.7436 292.252C16.7405 292.275 16.7379 292.294 16.7358 292.309C16.735 292.315 16.7342 292.325 16.7328 292.336C16.7296 292.364 16.7245 292.406 16.7182 292.46C16.7056 292.569 16.6873 292.729 16.6635 292.933C16.616 293.341 16.5471 293.927 16.4643 294.638C16.2986 296.059 16.0744 297.98 15.8403 299.979C15.6063 301.975 15.3623 304.051 15.1567 305.782L14.7045 309.521C14.5645 310.607 14.5944 311.419 14.7729 311.936C14.8561 312.177 14.9586 312.314 15.0561 312.396C15.1484 312.474 15.2934 312.551 15.5502 312.578C15.8497 312.609 16.0597 312.522 16.2543 312.35C16.4778 312.151 16.6837 311.83 16.8559 311.419C17.024 311.018 17.1333 310.597 17.2006 310.267C17.2337 310.104 17.2557 309.969 17.269 309.877C17.2755 309.831 17.28 309.796 17.2826 309.774C17.284 309.763 17.2851 309.755 17.2856 309.751V309.748L17.2866 309.735L17.2885 309.722C17.2886 309.721 17.2893 309.719 17.2895 309.718C17.2897 309.716 17.29 309.713 17.2905 309.709C17.2915 309.701 17.2933 309.688 17.2953 309.672C17.2995 309.64 17.3049 309.592 17.3129 309.529C17.329 309.404 17.3533 309.221 17.3832 308.987C17.4432 308.52 17.5284 307.853 17.6313 307.052C17.8371 305.449 18.1117 303.31 18.3871 301.165C18.6626 299.02 18.9391 296.867 19.1479 295.239C19.2523 294.425 19.3396 293.743 19.4018 293.257C19.4329 293.014 19.4577 292.82 19.475 292.685C19.4837 292.617 19.4908 292.563 19.4955 292.525C19.4979 292.507 19.5001 292.492 19.5014 292.481C19.5025 292.473 19.5022 292.469 19.5024 292.468C19.646 291.247 19.9552 290.444 20.4155 289.951C20.6567 289.693 20.9269 289.534 21.1938 289.455C21.4486 289.379 21.6525 289.39 21.7397 289.397C21.7417 289.398 21.7445 289.397 21.7465 289.397L21.7504 289.398C22.4334 289.458 22.8302 289.924 23.0229 290.301C23.2077 290.662 23.2813 291.066 23.3158 291.372C23.3522 291.695 23.3549 292.005 23.3491 292.226C23.3461 292.338 23.3409 292.431 23.3364 292.499C23.3341 292.533 23.3312 292.561 23.3295 292.581C23.3287 292.591 23.3281 292.599 23.3276 292.605C23.3273 292.608 23.3268 292.611 23.3266 292.613V292.617C23.3261 292.623 23.3254 292.63 23.3246 292.639C23.3228 292.661 23.3204 292.693 23.3168 292.735C23.3096 292.82 23.299 292.945 23.2856 293.104C23.2586 293.423 23.2199 293.882 23.1733 294.437C23.0799 295.546 22.9542 297.045 22.8256 298.6C22.632 300.94 22.4331 303.392 22.3246 304.846L22.2494 305.926C22.1989 306.827 22.1971 307.838 22.4184 308.594C22.5262 308.962 22.6652 309.189 22.8032 309.318C22.9175 309.425 23.0846 309.518 23.4037 309.517C23.5388 309.516 23.681 309.465 23.8627 309.244C24.0608 309.004 24.2394 308.633 24.3832 308.183C24.5232 307.744 24.6102 307.295 24.6625 306.947C24.6884 306.776 24.7053 306.633 24.7153 306.536C24.7202 306.488 24.724 306.45 24.726 306.427C24.727 306.415 24.7276 306.406 24.728 306.401V306.397L24.7289 306.389V306.377C24.7295 306.369 24.7307 306.358 24.7319 306.343C24.7342 306.312 24.7382 306.268 24.7426 306.209C24.7515 306.091 24.764 305.919 24.7807 305.699C24.814 305.26 24.862 304.632 24.9194 303.877C25.0342 302.367 25.1878 300.35 25.3432 298.32C25.651 294.298 25.9723 290.133 26.0053 289.894C26.0095 289.862 26.0137 289.828 26.019 289.783C26.0352 289.645 26.0686 289.265 26.2309 288.931C26.3241 288.739 26.4753 288.523 26.7192 288.355C26.967 288.185 27.245 288.112 27.516 288.102C27.9641 288.085 28.3423 288.27 28.6 288.553C28.825 288.8 28.9252 289.082 28.9741 289.267C29.026 289.463 29.0444 289.645 29.0512 289.767C29.0548 289.83 29.0552 289.884 29.0551 289.925V289.954C29.0556 289.971 29.0561 289.996 29.0571 290.029C29.0591 290.095 29.0622 290.193 29.0658 290.317C29.0732 290.567 29.0832 290.926 29.0951 291.365C29.1191 292.243 29.1498 293.44 29.1762 294.72C29.2286 297.261 29.2666 300.185 29.1977 301.539C29.1364 302.745 29.3364 303.454 29.5619 303.821C29.7555 304.137 29.9693 304.219 30.2055 304.214C30.435 304.209 30.6571 304.098 30.8657 303.711C31.0869 303.3 31.2178 302.684 31.2045 302.007C31.1729 300.368 31.4739 294.152 31.7494 289.959C32.0696 285.088 32.0789 283.983 32.0795 283.575C32.0795 283.584 32.0812 283.593 32.0815 283.603C32.0807 283.574 32.0788 283.545 32.0805 283.516L32.1674 281.958C32.3533 278.454 32.4201 275.837 32.4799 273.484C32.5304 271.498 32.5754 269.691 32.685 267.702C32.6846 267.694 32.6848 267.682 32.684 267.667C32.6813 267.616 32.6772 267.546 32.6713 267.453C32.6254 266.727 32.5091 264.918 32.6752 262.979C32.7135 262.533 32.8076 262.105 32.9301 261.704L36.058 251.458L36.0824 251.402C36.9363 249.476 37.7463 247.753 38.5492 246.046C40.785 241.292 42.992 236.602 46.0571 227.709C48.4688 220.711 50.3174 215.106 51.5629 211.251C52.1857 209.324 52.658 207.833 52.974 206.826C53.1321 206.323 53.251 205.939 53.3305 205.683C53.3702 205.554 53.4005 205.457 53.4203 205.393C53.4302 205.361 53.4369 205.336 53.4418 205.32C54.9338 199.684 58.3097 182.227 59.3608 176.79L59.3617 176.784L59.3627 176.78C59.5411 175.857 59.6565 175.263 59.6782 175.164V175.162C60.6488 170.771 61.8743 165.193 62.8871 160.58L68.9819 123.535L68.9907 123.478L69.0073 123.421L76.0073 99.0547L75.1586 87.8613C75.0741 87.8813 74.9896 87.9019 74.9047 87.9219ZM214.04 307.523L214.041 307.525C214.043 307.532 214.046 307.546 214.05 307.564C214.06 307.604 214.077 307.666 214.102 307.741C214.154 307.897 214.234 308.085 214.346 308.254C214.458 308.422 214.581 308.537 214.708 308.604C214.821 308.662 214.996 308.713 215.289 308.661C215.639 308.599 215.83 308.375 215.934 307.884C215.985 307.644 215.996 307.397 215.993 307.202C215.991 307.107 215.985 307.03 215.981 306.979L215.974 306.918C215.973 306.913 215.972 306.907 215.971 306.898C215.968 306.877 215.964 306.846 215.957 306.805C215.945 306.722 215.926 306.601 215.903 306.445C215.856 306.135 215.789 305.688 215.706 305.143C215.541 304.051 215.316 302.564 215.075 300.986C214.591 297.825 214.045 294.311 213.788 292.85C213.743 292.593 213.699 292.34 213.655 292.09L213.634 291.973L213.632 291.962L213.63 291.95C213.448 290.922 213.272 289.95 213.11 289.054L213.109 289.047C213.108 289.045 213.107 289.042 213.107 289.038V289.036L212.741 287.002C212.63 286.382 212.534 285.823 212.455 285.341L212.454 285.334C212.371 284.809 212.307 284.383 212.267 284.097C212.267 284.096 212.266 284.09 212.264 284.075C212.262 284.06 212.258 284.041 212.254 284.016C212.246 283.965 212.236 283.897 212.222 283.812C212.195 283.644 212.156 283.413 212.111 283.137C212.02 282.585 211.9 281.854 211.774 281.086L211.665 280.428L211.664 280.421C211.649 280.323 211.63 280.125 211.695 279.896C211.769 279.631 211.962 279.319 212.336 279.152L212.389 279.129L212.443 279.112C212.838 278.988 213.169 279.117 213.295 279.175C213.37 279.209 213.436 279.248 213.492 279.285L213.627 279.389L213.634 279.395C213.731 279.481 213.84 279.59 213.954 279.746L213.962 279.758L213.97 279.769C214.343 280.311 214.788 281.14 215.26 282.018L215.923 283.237C216.616 284.491 217.396 285.814 218.254 286.916C219.447 288.447 220.544 289.227 221.499 289.216L221.514 289.215L221.529 289.216C221.531 289.216 221.534 289.216 221.538 289.216C221.55 289.216 221.57 289.215 221.597 289.214C221.652 289.212 221.734 289.209 221.83 289.199C222.032 289.179 222.251 289.138 222.421 289.072C222.474 289.052 222.51 289.031 222.536 289.017C222.525 288.976 222.505 288.915 222.463 288.829C220.771 285.978 219.662 283.684 218.623 281.535C217.18 278.549 215.868 275.836 213.268 272.166C211.793 270.211 210.873 269.535 210.047 268.924C209.396 268.442 208.735 267.954 207.976 266.996C206.883 265.616 206.228 263.986 205.997 262.305L205.844 261.202L200.093 220.104C199.981 219.542 199.874 218.997 199.77 218.466C198.617 212.608 197.785 208.381 194.74 201.138C192.302 195.342 190.475 190.495 188.883 185.188C188.066 182.463 187.575 178.969 187.288 176.197C187.144 174.803 187.05 173.576 186.992 172.696C186.962 172.256 186.942 171.903 186.929 171.659C186.923 171.537 186.919 171.443 186.915 171.378C186.914 171.346 186.912 171.321 186.912 171.304C186.911 171.295 186.911 171.289 186.911 171.284C186.196 161.799 181.895 124.722 181.708 123.115C181.706 123.101 181.702 123.086 181.7 123.071C180.96 117.307 179.4 110.027 176.142 103.772C172.89 97.5305 167.998 92.3988 160.605 90.7021L160.58 90.6963L160.554 90.6895C156.646 89.5735 152.984 88.7095 149.643 87.9219C149.641 87.9215 149.639 87.9212 149.638 87.9209C149.637 87.9206 149.635 87.9201 149.634 87.9199C149.55 87.9 149.465 87.8792 149.381 87.8594L148.535 99.0527L155.538 123.421L155.553 123.477L155.563 123.534L161.663 160.597C162.676 165.206 163.9 170.777 164.871 175.162L165.196 176.831L165.198 176.842C166.259 182.332 169.61 199.665 171.1 205.302L171.105 205.32C171.11 205.336 171.117 205.36 171.127 205.393C171.147 205.457 171.177 205.554 171.217 205.683C171.297 205.939 171.416 206.323 171.574 206.826C171.89 207.833 172.362 209.323 172.985 211.25C174.231 215.105 176.08 220.71 178.492 227.708L179.056 229.327C181.831 237.184 183.901 241.585 185.997 246.04L185.998 246.044C186.601 247.325 187.207 248.615 187.833 249.992L188.466 251.401L188.491 251.457L191.619 261.705C191.741 262.106 191.834 262.532 191.872 262.978C192.04 264.922 191.923 266.737 191.877 267.459C191.872 267.545 191.867 267.611 191.865 267.66C191.864 267.673 191.863 267.685 191.863 267.694C191.862 267.704 191.863 267.711 191.863 267.715C191.972 269.695 192.018 271.498 192.068 273.477L192.069 273.483C192.137 276.172 192.214 279.206 192.468 283.516C192.47 283.544 192.467 283.573 192.466 283.602L192.469 283.574L192.476 284.059C192.494 284.769 192.56 286.304 192.799 289.959C193.075 294.152 193.375 300.367 193.343 302.006C193.33 302.683 193.462 303.299 193.683 303.71C193.892 304.098 194.113 304.209 194.342 304.214L194.429 304.211C194.631 304.194 194.816 304.097 194.986 303.82C195.211 303.453 195.412 302.744 195.351 301.538C195.282 300.184 195.319 297.261 195.372 294.72C195.398 293.44 195.429 292.242 195.453 291.364C195.465 290.926 195.475 290.567 195.482 290.317C195.486 290.193 195.489 290.095 195.491 290.029C195.492 289.996 195.493 289.971 195.494 289.954C195.494 289.953 195.494 289.951 195.494 289.95C195.493 289.942 195.493 289.933 195.493 289.924C195.492 289.883 195.494 289.829 195.497 289.766C195.504 289.644 195.522 289.463 195.574 289.267C195.623 289.082 195.723 288.8 195.948 288.553C196.205 288.27 196.583 288.084 197.032 288.101C197.303 288.111 197.582 288.185 197.83 288.355C198.073 288.523 198.224 288.74 198.317 288.932C198.479 289.265 198.513 289.645 198.53 289.783C198.533 289.808 198.535 289.829 198.538 289.85C198.54 289.866 198.542 289.88 198.543 289.893L198.617 290.745C198.735 292.206 198.975 295.303 199.205 298.319C199.361 300.349 199.515 302.366 199.629 303.876C199.687 304.631 199.734 305.259 199.767 305.698C199.784 305.918 199.797 306.09 199.806 306.208C199.811 306.267 199.814 306.311 199.816 306.342C199.817 306.357 199.818 306.369 199.819 306.377C199.819 306.38 199.82 306.383 199.82 306.385V306.388L199.821 306.397V306.401C199.821 306.406 199.822 306.415 199.823 306.427C199.825 306.45 199.828 306.487 199.832 306.535C199.842 306.632 199.859 306.775 199.885 306.946C199.938 307.294 200.025 307.744 200.165 308.183C200.309 308.633 200.487 309.003 200.685 309.243C200.867 309.464 201.009 309.515 201.144 309.516C201.463 309.517 201.63 309.425 201.745 309.318C201.882 309.189 202.021 308.962 202.129 308.594C202.351 307.838 202.349 306.827 202.298 305.926C202.249 305.039 201.98 301.72 201.722 298.6C201.593 297.045 201.468 295.545 201.374 294.436C201.328 293.881 201.29 293.423 201.263 293.104C201.25 292.945 201.239 292.819 201.232 292.734C201.228 292.692 201.225 292.659 201.223 292.638C201.222 292.627 201.222 292.619 201.221 292.613C201.221 292.611 201.22 292.608 201.22 292.604C201.22 292.598 201.219 292.59 201.218 292.58C201.217 292.56 201.215 292.533 201.212 292.499C201.208 292.431 201.203 292.337 201.2 292.225C201.194 292.004 201.196 291.695 201.232 291.372C201.266 291.065 201.341 290.662 201.526 290.301C201.719 289.924 202.114 289.458 202.798 289.398L202.807 289.397C202.893 289.39 203.099 289.378 203.355 289.454C203.622 289.534 203.891 289.692 204.132 289.95C204.535 290.382 204.822 291.05 204.984 292.028L205.045 292.467C205.046 292.468 205.046 292.473 205.047 292.48C205.049 292.491 205.051 292.506 205.053 292.525C205.058 292.563 205.064 292.617 205.073 292.685C205.09 292.82 205.115 293.014 205.146 293.257C205.208 293.743 205.295 294.426 205.4 295.239C205.609 296.867 205.885 299.019 206.161 301.164C206.436 303.309 206.711 305.449 206.916 307.052C207.019 307.853 207.105 308.52 207.165 308.987C207.195 309.221 207.219 309.404 207.235 309.529C207.243 309.592 207.249 309.64 207.253 309.672C207.255 309.688 207.257 309.7 207.258 309.708C207.259 309.712 207.259 309.716 207.259 309.718V309.721L207.261 309.735L207.263 309.747C207.263 309.747 207.263 309.749 207.263 309.751C207.264 309.755 207.265 309.763 207.266 309.773C207.269 309.795 207.273 309.83 207.28 309.876C207.293 309.968 207.314 310.104 207.347 310.267C207.414 310.597 207.525 311.018 207.693 311.419C207.865 311.83 208.071 312.151 208.294 312.35C208.489 312.522 208.698 312.608 208.997 312.577C209.254 312.55 209.399 312.474 209.492 312.396C209.589 312.314 209.692 312.176 209.775 311.935C209.953 311.418 209.984 310.606 209.844 309.521C209.684 308.282 209.175 303.969 208.707 299.978C208.473 297.979 208.249 296.058 208.083 294.637C208.001 293.926 207.933 293.34 207.885 292.932C207.861 292.728 207.843 292.569 207.83 292.46C207.824 292.406 207.819 292.364 207.816 292.336C207.814 292.322 207.813 292.311 207.812 292.304C207.812 292.3 207.811 292.298 207.811 292.296V292.294C207.809 292.282 207.806 292.267 207.804 292.251C207.798 292.204 207.791 292.139 207.784 292.062C207.77 291.911 207.756 291.695 207.766 291.466C207.775 291.255 207.807 290.942 207.934 290.645C208.061 290.348 208.36 289.922 208.926 289.822L209.043 289.807C209.124 289.799 209.309 289.788 209.538 289.858C209.772 289.93 209.992 290.068 210.181 290.269C210.536 290.646 210.764 291.223 210.901 292.018C210.975 292.452 211.756 296.306 212.525 300.087C212.908 301.97 213.286 303.824 213.569 305.208C213.71 305.9 213.827 306.475 213.909 306.876C213.95 307.076 213.982 307.234 214.004 307.341C214.015 307.394 214.023 307.436 214.029 307.464C214.032 307.477 214.034 307.488 214.036 307.495C214.036 307.498 214.036 307.501 214.037 307.503L214.038 307.505L214.039 307.517L214.04 307.523ZM158.767 164.511C152.518 171.725 143.452 175.88 133.908 175.904L112.269 175.96H112.264L90.6391 175.904C81.0913 175.88 72.0218 171.722 65.7729 164.503L65.2006 163.842C66.0148 171.474 66.8714 179.869 67.5131 187.162C68.2412 195.436 68.7086 202.404 68.5102 205.167C68.0682 211.321 66.34 217.56 64.4985 224.222C63.0579 229.433 61.5389 234.929 60.4526 240.953C57.7717 255.822 56.9553 270.679 56.2172 285.508C69.0979 292.294 84.0217 294.145 98.1811 290.696L112.004 287.329C112.017 287.326 112.029 287.323 112.039 287.32L112.235 287.273L112.406 287.301C112.458 287.307 112.526 287.322 112.601 287.346L126.36 290.696C140.522 294.145 155.447 292.294 168.33 285.508C167.592 270.679 166.775 255.822 164.095 240.953C163.009 234.928 161.491 229.432 160.05 224.221C158.209 217.56 156.48 211.321 156.038 205.167C155.84 202.404 156.307 195.436 157.035 187.162C157.676 179.869 158.532 171.473 159.346 163.841L158.767 164.511ZM191.911 284.473C191.952 284.452 191.992 284.428 192.031 284.401C191.993 284.427 191.953 284.452 191.911 284.473ZM77.7826 100.116L70.9467 123.911L64.9311 160.475L67.2856 163.194C73.1558 169.976 81.6759 173.881 90.645 173.904L112.266 173.959L133.902 173.904C142.868 173.881 151.385 169.978 157.255 163.201L159.617 160.475L153.598 123.917L146.759 100.115L112.271 98.1592L77.7826 100.116ZM120.832 106.81C121.038 106.797 121.267 106.81 121.504 106.843C121.983 106.91 122.574 107.069 123.215 107.355C123.856 107.641 124.363 107.973 124.726 108.284C124.905 108.438 125.067 108.602 125.192 108.769C125.254 108.851 125.321 108.954 125.375 109.07C125.422 109.169 125.504 109.37 125.494 109.625L125.493 109.639C125.479 109.899 125.376 110.176 125.316 110.334C125.238 110.538 125.135 110.774 125.024 111.015C124.801 111.498 124.52 112.063 124.276 112.552L124.264 112.575L124.255 112.592C123.91 113.284 123.542 114.023 123.234 114.708C128.309 115.667 131.428 117.103 133.467 118.778C135.597 120.527 136.453 122.462 137.151 124.025L137.155 124.034C138.876 127.893 139.612 132.662 139.449 136.958C139.288 141.199 138.239 145.249 136.117 147.462C134.839 148.794 133.017 149.15 131.151 149.016C129.279 148.881 127.194 148.247 125.154 147.392C121.322 145.785 117.426 143.304 114.971 141.411L114.499 141.041C113.311 140.089 112.173 138.911 111.173 137.608C111.034 137.866 110.875 138.156 110.718 138.434C110.569 138.697 110.416 138.959 110.281 139.175C110.213 139.282 110.144 139.387 110.079 139.479C110.024 139.555 109.933 139.678 109.821 139.781L109.796 139.804L109.77 139.825C109.588 139.972 109.395 140.03 109.295 140.056C109.177 140.086 109.061 140.1 108.958 140.106C108.753 140.119 108.523 140.105 108.287 140.072C107.808 140.005 107.217 139.847 106.576 139.561C105.935 139.275 105.427 138.944 105.065 138.633C104.886 138.479 104.725 138.315 104.6 138.148C104.538 138.066 104.47 137.964 104.415 137.848C104.369 137.749 104.288 137.548 104.297 137.293V137.285L104.298 137.276C104.312 137.022 104.407 136.756 104.467 136.597C104.542 136.398 104.641 136.171 104.747 135.938C104.961 135.472 105.234 134.923 105.481 134.429C106.228 132.933 107.067 131.234 107.398 129.931C107.321 129.568 107.232 129.113 107.222 128.682C107.168 126.295 108.344 123.146 109.941 120.364C111.532 117.593 113.682 114.944 115.828 113.591C116.856 112.542 117.751 110.89 118.543 109.408L118.556 109.386C118.787 108.954 119.034 108.491 119.257 108.11C119.369 107.92 119.483 107.736 119.593 107.577C119.69 107.439 119.834 107.245 120.012 107.098L120.021 107.09C120.203 106.943 120.394 106.885 120.495 106.859C120.613 106.829 120.73 106.816 120.832 106.81ZM121.169 108.818C121.115 108.902 121.052 109.003 120.983 109.122C120.783 109.463 120.555 109.887 120.319 110.329L120.306 110.352C119.546 111.772 118.509 113.732 117.22 115.029L117.214 115.035C117.133 115.116 117.038 115.193 116.931 115.259L116.93 115.258C115.173 116.35 113.206 118.694 111.675 121.36C110.137 124.039 109.18 126.799 109.221 128.636L109.236 128.841C109.26 129.058 109.311 129.314 109.376 129.619L109.404 129.784C109.421 129.948 109.41 130.119 109.37 130.289L109.372 130.29C108.995 131.881 108 133.861 107.271 135.321C107.02 135.824 106.762 136.341 106.565 136.771C106.501 136.911 106.447 137.035 106.403 137.143C106.608 137.312 106.936 137.531 107.391 137.734C107.872 137.949 108.282 138.053 108.563 138.092C108.574 138.093 108.586 138.093 108.596 138.095C108.706 137.919 108.839 137.694 108.978 137.448C109.264 136.943 109.56 136.389 109.726 136.079L109.727 136.078C109.981 135.604 110.466 135.294 110.997 135.253C111.503 135.214 112.049 135.417 112.385 135.886C113.384 137.276 114.55 138.519 115.749 139.479C118.039 141.314 122.041 143.918 125.927 145.547C127.873 146.363 129.729 146.908 131.293 147.021C132.864 147.133 133.977 146.803 134.673 146.077C136.273 144.409 137.295 140.988 137.451 136.883C137.604 132.835 136.903 128.385 135.332 124.857L135.331 124.855L135.328 124.847C134.639 123.304 133.938 121.754 132.198 120.324C130.441 118.882 127.531 117.492 122.301 116.568C121.861 116.491 121.462 116.225 121.23 115.82C120.995 115.411 120.969 114.923 121.147 114.493L121.451 113.797C121.773 113.087 122.141 112.349 122.465 111.699L122.466 111.698L122.474 111.682L122.486 111.659C122.733 111.163 122.999 110.628 123.206 110.179C123.277 110.026 123.336 109.889 123.385 109.771C123.18 109.602 122.853 109.384 122.4 109.182C121.919 108.967 121.509 108.864 121.228 108.824C121.208 108.821 121.188 108.82 121.169 108.818ZM107.913 129.938L107.917 129.939L108.4 129.834L107.913 129.938ZM107.917 129.939L107.913 129.938L108.4 129.834L107.917 129.939ZM182.598 123.941C182.603 123.942 182.609 123.941 182.614 123.941C182.604 123.941 182.594 123.94 182.584 123.938C182.589 123.939 182.593 123.941 182.598 123.941ZM183.045 123.881C183.061 123.875 183.075 123.871 183.087 123.865C183.074 123.871 183.059 123.876 183.045 123.881ZM41.4594 123.864C41.4714 123.869 41.4849 123.874 41.4994 123.88C41.4861 123.875 41.4726 123.87 41.4594 123.864ZM41.2485 123.743C41.2655 123.756 41.3223 123.798 41.4028 123.839C41.4108 123.843 41.4216 123.847 41.434 123.853C41.3241 123.802 41.2493 123.744 41.2319 123.73L41.2485 123.743ZM183.121 123.85C183.131 123.845 183.14 123.841 183.147 123.838C183.177 123.822 183.203 123.805 183.226 123.791C183.197 123.81 183.161 123.83 183.121 123.85ZM183.277 123.758C183.287 123.751 183.296 123.746 183.3 123.742C183.305 123.739 183.308 123.735 183.312 123.732C183.305 123.738 183.293 123.746 183.277 123.758ZM42.2436 122.026C42.2552 122.031 42.2657 122.036 42.2748 122.04L42.2612 122.033L42.2436 122.026ZM42.1948 122.008C42.1741 122 42.1533 121.993 42.1323 121.987C42.1549 121.994 42.1758 122.001 42.1948 122.008ZM42.0815 121.975C42.0471 121.967 42.0128 121.959 41.978 121.955C42.0151 121.96 42.0495 121.967 42.0815 121.975ZM182.554 121.958C182.525 121.962 182.495 121.967 182.466 121.974C182.494 121.967 182.523 121.962 182.554 121.958ZM122.649 114.599H122.652L122.647 114.598L122.649 114.599ZM115.874 113.561C115.876 113.56 115.877 113.559 115.878 113.559L115.88 113.557C115.878 113.558 115.876 113.559 115.874 113.561ZM118.984 73.1553C114.756 75.2717 109.777 75.2713 105.55 73.1533L96.9516 68.8447C96.9424 70.8059 96.7819 73.0431 96.0424 75.2695C95.0722 78.1904 93.1264 81.0463 89.3783 83.292C86.4156 85.067 82.1412 86.1962 77.1283 87.3936L77.9408 98.1045L112.214 96.1592L112.271 96.1562L112.328 96.1592L146.601 98.1035L147.412 87.3916C142.402 86.195 138.13 85.0665 135.169 83.292C131.421 81.0463 129.475 78.1904 128.505 75.2695C127.766 73.0431 127.604 70.8059 127.595 68.8447L118.984 73.1553ZM112.273 2.00098C104.783 2.39237 100.637 3.93502 99.1088 4.66602L98.8373 4.80078C90.7129 9.02531 85.8744 18.1335 86.395 28.54C86.4688 30.013 86.7066 33.4958 87.0336 37.5303L87.2309 39.9639L85.3832 38.3672C84.6261 37.7132 84.1766 37.5244 83.9819 37.4932C83.9785 37.4993 83.974 37.5058 83.9701 37.5137C83.8721 37.7137 83.7842 38.1497 83.8119 38.8809C83.8385 39.5806 83.9653 40.4396 84.184 41.3984C84.6214 43.3155 85.4064 45.5356 86.3793 47.5078C87.3652 49.5062 88.4868 51.1317 89.5463 51.9746C90.3104 52.5825 91.2617 53.4831 91.6069 54.71L91.6674 54.96C91.8154 55.6826 92.8554 59.2282 94.1332 62.0674C94.8469 63.6519 95.6027 65.1313 96.5903 66.4277L106.446 71.3652C110.109 73.2009 114.425 73.2016 118.089 71.3672L127.956 66.4258C128.944 65.1296 129.702 63.6515 130.414 62.0674C131.692 59.2282 132.732 55.6835 132.88 54.9609L132.941 54.7109C133.285 53.4825 134.238 52.5818 135.001 51.9746C136.061 51.1316 137.183 49.5054 138.169 47.5068C139.142 45.5347 139.926 43.3154 140.364 41.3984C140.583 40.4394 140.709 39.5797 140.736 38.8799C140.763 38.149 140.677 37.7136 140.579 37.5137C140.575 37.5057 140.569 37.4994 140.566 37.4932C140.371 37.5246 139.921 37.7134 139.164 38.3672L137.317 39.9639L137.514 37.5303C137.841 33.4958 138.08 30.0124 138.153 28.54L138.173 28.0527C138.516 18.0109 133.86 9.24076 126.088 5.00195L125.71 4.80078C124.451 4.14557 120.264 2.41837 112.273 2.00098ZM110.684 433.419C110.684 443.426 109.823 452.778 109.008 461.63C107.879 473.893 106.845 485.162 108.231 496.08C108.296 496.593 108.347 496.952 108.427 497.49C108.495 497.951 108.556 498.436 108.585 498.929C108.674 500.433 108.607 501.749 108.555 502.796C108.539 503.119 108.525 503.412 108.516 503.682C108.479 504.78 108.441 506.114 108.405 507.436V507.443C108.339 509.812 108.274 512.186 108.209 513.013C108.208 513.032 108.208 513.052 108.207 513.07L108.206 513.071L108.205 513.126L108.204 513.125V513.128L108.182 513.529L108.165 513.544C108.051 514.933 107.913 516.295 107.776 517.632C107.52 520.127 107.274 522.531 107.201 524.937C107.192 525.235 107.189 525.594 107.187 526.02C107.177 527.783 107.164 530.51 106.546 533.208C106.277 534.382 105.655 536.075 104.764 537.741C103.877 539.4 102.673 541.127 101.196 542.285C99.3963 543.696 96.9171 544.087 94.9018 543.811H94.8998H94.8979C94.8962 543.81 94.894 543.81 94.892 543.81C94.8881 543.809 94.8834 543.809 94.8783 543.809C94.8679 543.807 94.8548 543.805 94.8393 543.803C94.8081 543.798 94.7669 543.791 94.7153 543.782C94.6117 543.764 94.4661 543.735 94.2787 543.689C93.9042 543.599 93.3603 543.443 92.6391 543.179C91.1964 542.651 89.0424 541.689 86.1127 539.942C81.8336 537.391 79.4244 533.827 78.8588 532.93C77.2236 530.334 77.8513 527.346 78.435 524.949C78.9179 522.966 79.975 519.528 80.9057 517.244C81.1995 516.523 81.4989 515.796 81.7983 515.074L82.6879 512.938L82.6899 512.934C84.119 509.508 85.3397 506.577 85.7016 505.262C87.1473 500.007 86.8049 493.633 85.4496 486.428C84.0961 479.232 81.7579 471.324 79.3022 463.021C76.5938 453.865 73.7476 444.245 71.9926 434.717C69.8923 423.316 70.5823 414.247 71.1996 406.107C71.685 399.708 72.1181 393.946 71.1869 387.989C71.1869 387.989 71.1861 387.986 71.185 387.979C71.1839 387.973 71.183 387.965 71.1811 387.954C71.1773 387.933 71.1719 387.904 71.1655 387.869C71.1525 387.799 71.1351 387.703 71.1127 387.584C71.0679 387.346 71.0048 387.015 70.9252 386.599L70.2612 383.141L70.2582 383.124C70.258 383.123 70.2577 383.119 70.2573 383.117C68.1825 372.315 63.1478 346.105 60.1821 328.86C59.5649 325.272 58.8096 321.611 58.0405 317.886C55.904 307.539 53.659 296.695 54.1879 286.043C54.934 271.017 55.7395 255.824 58.4848 240.598C59.5896 234.471 61.1325 228.892 62.5707 223.689C64.4245 216.984 66.0899 210.943 66.5151 205.024C66.6993 202.46 66.2553 195.684 65.5209 187.338C64.9619 180.985 64.2411 173.787 63.5258 166.987C62.8689 169.974 62.2064 172.992 61.6313 175.594C61.631 175.595 61.6301 175.598 61.6293 175.602C61.6279 175.608 61.6258 175.617 61.6235 175.629C61.6188 175.652 61.6126 175.683 61.6049 175.723C61.5894 175.801 61.5686 175.909 61.5424 176.044C61.49 176.314 61.4172 176.691 61.3266 177.16L61.3256 177.164L61.3246 177.169C60.2819 182.563 56.8853 200.137 55.3725 205.845L55.3627 205.88L55.3617 205.882C55.3614 205.883 55.3614 205.885 55.3608 205.887C55.3595 205.891 55.3575 205.898 55.3549 205.906C55.3498 205.923 55.3415 205.948 55.3315 205.98C55.3113 206.046 55.2816 206.144 55.2416 206.273C55.1614 206.533 55.0411 206.919 54.8823 207.425C54.5646 208.437 54.0908 209.932 53.4662 211.865C52.2171 215.731 50.3641 221.349 47.9477 228.36C44.849 237.351 42.609 242.115 40.3598 246.897C39.5632 248.591 38.7682 250.279 37.933 252.161L34.8432 262.288C34.7531 262.583 34.6923 262.871 34.6684 263.15C34.516 264.928 34.621 266.609 34.6664 267.327C34.6721 267.416 34.6777 267.497 34.6811 267.56C34.6831 267.597 34.6876 267.696 34.683 267.781L34.684 267.782C34.5752 269.748 34.5297 271.535 34.4789 273.535C34.4108 276.217 34.333 279.263 34.0795 283.578L34.0717 284.109C34.0528 284.864 33.9861 286.43 33.7455 290.091C33.4686 294.305 33.1749 300.43 33.2045 301.968L33.2026 302.312C33.1768 303.122 33.002 303.96 32.6264 304.658C32.212 305.428 31.4985 306.099 30.4633 306.201L30.2514 306.214C29.2765 306.236 28.4084 305.766 27.8569 304.867C27.3371 304.02 27.1287 302.852 27.2006 301.438C27.2206 301.045 27.2275 300.502 27.2309 299.862C27.1133 301.401 27.0019 302.865 26.9135 304.028C26.8561 304.783 26.8082 305.411 26.7748 305.851C26.7582 306.07 26.7457 306.242 26.7367 306.359C26.7323 306.418 26.7283 306.464 26.726 306.494C26.7249 306.509 26.7246 306.521 26.7241 306.528C26.7238 306.532 26.7232 306.535 26.7231 306.537V306.54C26.7229 306.543 26.7224 306.546 26.7221 306.55C26.7213 306.56 26.7206 306.575 26.7192 306.593C26.7162 306.628 26.7109 306.678 26.7045 306.74C26.6918 306.864 26.6723 307.038 26.641 307.245C26.5791 307.656 26.4716 308.218 26.2885 308.791C26.1092 309.353 25.8353 309.995 25.4067 310.516C24.9619 311.055 24.3021 311.513 23.4125 311.517C22.6214 311.52 21.951 311.26 21.4369 310.779C20.9465 310.321 20.6659 309.725 20.4994 309.156C20.1723 308.039 20.2015 306.722 20.2524 305.814L20.3285 304.709C20.4386 303.231 20.64 300.761 20.8324 298.435C20.8818 297.838 20.9312 297.25 20.978 296.689C20.7957 298.11 20.5836 299.768 20.3715 301.42C20.0961 303.565 19.8215 305.704 19.6157 307.307C19.5127 308.108 19.4266 308.775 19.3666 309.242C19.3367 309.476 19.3134 309.659 19.2973 309.784C19.2893 309.846 19.2829 309.894 19.2787 309.927C19.2767 309.943 19.2749 309.956 19.2739 309.964C19.2734 309.968 19.2731 309.971 19.2729 309.973C19.2727 309.974 19.2729 309.975 19.2729 309.976C19.2718 309.986 19.2697 309.998 19.268 310.013C19.2636 310.049 19.2574 310.099 19.2485 310.161C19.2306 310.286 19.2026 310.46 19.1606 310.666C19.0775 311.074 18.9351 311.631 18.6996 312.192C18.4682 312.744 18.1179 313.37 17.5815 313.846C17.0161 314.347 16.2621 314.663 15.3422 314.567C14.7427 314.505 14.2058 314.296 13.767 313.926C13.3337 313.56 13.0546 313.088 12.8823 312.589C12.5493 311.625 12.5693 310.435 12.7201 309.265C12.835 308.373 13.1335 305.852 13.4692 303.003C13.2735 303.963 13.0925 304.856 12.9389 305.609C12.7978 306.301 12.681 306.875 12.5991 307.276C12.5581 307.477 12.5253 307.635 12.5033 307.742C12.4924 307.796 12.4846 307.837 12.4789 307.864C12.4761 307.878 12.4735 307.888 12.4721 307.896C12.4714 307.899 12.4715 307.902 12.4711 307.903L12.4701 307.906C12.4684 307.915 12.466 307.926 12.4633 307.938C12.4577 307.965 12.4503 308.001 12.4399 308.043C12.4191 308.127 12.388 308.242 12.3432 308.376C12.2551 308.639 12.1068 309.003 11.8666 309.363C11.6263 309.724 11.2711 310.115 10.7612 310.38C10.2359 310.652 9.61183 310.756 8.91057 310.632C7.39861 310.364 6.83924 309.156 6.65764 308.298C6.56572 307.863 6.55055 307.456 6.55608 307.165C6.55891 307.017 6.56768 306.893 6.57561 306.804C6.57957 306.759 6.58317 306.723 6.58635 306.695C6.58795 306.682 6.58911 306.67 6.59026 306.661C6.59084 306.657 6.59178 306.653 6.59221 306.649C6.59241 306.648 6.59205 306.647 6.59221 306.646L6.59319 306.644C6.59619 306.644 6.64892 306.65 7.58343 306.782L6.59319 306.642L6.59417 306.634V306.632C6.59437 306.63 6.59476 306.629 6.59514 306.626C6.59595 306.621 6.59746 306.612 6.59905 306.602C6.60224 306.58 6.60753 306.549 6.6137 306.508C6.6261 306.425 6.64401 306.304 6.66741 306.148C6.71423 305.837 6.78114 305.39 6.8637 304.844C7.02882 303.751 7.25478 302.264 7.49651 300.685C7.97902 297.532 8.52879 293.993 8.78948 292.505C8.80754 292.401 8.82511 292.297 8.84319 292.194L8.83245 292.181L8.92522 291.718L8.93792 291.651C8.94244 291.629 8.94813 291.603 8.95354 291.576C9.13564 290.55 9.31084 289.579 9.4721 288.688L9.47307 288.683V288.681C9.73874 287.212 9.96489 285.963 10.1205 285.017C10.1479 284.842 10.17 284.679 10.1928 284.529C9.52002 285.731 8.73923 287.03 7.87151 288.145C6.66001 289.7 5.03651 291.223 3.05413 291.214L3.0551 291.215H3.04827C3.04512 291.215 3.04105 291.216 3.03655 291.216C3.02756 291.216 3.01546 291.216 3.00139 291.216C2.97327 291.216 2.9353 291.214 2.88909 291.213C2.79633 291.21 2.66781 291.204 2.518 291.188C2.22944 291.159 1.81236 291.095 1.40569 290.938C1.01566 290.787 0.482638 290.491 0.191824 289.906C-0.121828 289.275 -0.0242479 288.582 0.29241 287.937L0.309988 287.9L0.330496 287.865C1.99467 285.068 3.07945 282.825 4.12346 280.665C5.57758 277.657 6.95042 274.814 9.65862 270.993L9.66643 270.981L9.67522 270.97C11.3042 268.808 12.3835 268.002 13.31 267.316C13.935 266.854 14.4183 266.495 15.0043 265.755C15.8608 264.673 16.3832 263.384 16.5698 262.032L16.7221 260.927V260.925L22.476 219.802L22.4858 219.745C22.5993 219.175 22.7083 218.621 22.8149 218.08C23.9757 212.181 24.8392 207.795 27.9643 200.362C30.3843 194.608 32.1844 189.831 33.7485 184.614C34.509 182.077 34.9846 178.738 35.269 175.992C35.4103 174.628 35.5028 173.424 35.56 172.563C35.5886 172.133 35.609 171.789 35.6215 171.553C35.6278 171.435 35.6323 171.344 35.6352 171.283C35.6366 171.253 35.6374 171.229 35.6381 171.214C35.6384 171.206 35.6389 171.201 35.6391 171.197V171.176L35.641 171.16C36.3673 161.479 40.8402 122.991 40.8588 122.831L40.8686 122.78C41.6237 116.914 43.2252 109.388 46.6323 102.849C50.0506 96.2877 55.3388 90.6313 63.478 88.7568C67.4242 87.6308 71.1182 86.7593 74.4457 85.9746C74.917 85.8635 75.3809 85.7547 75.8373 85.6465C81.301 84.3515 85.5465 83.2564 88.351 81.5762C91.6726 79.5858 93.3189 77.1235 94.144 74.6396C94.9428 72.2347 94.9861 69.7672 94.9389 67.5625C93.9861 66.295 93.2484 64.9111 92.601 63.5254L92.31 62.8887C90.9782 59.9296 89.8892 56.2449 89.7084 55.3623L89.6801 55.2471C89.516 54.6706 89.0142 54.1073 88.3012 53.54C86.8921 52.419 85.6116 50.4729 84.5854 48.3926C83.5461 46.2858 82.7073 43.9189 82.2338 41.8438C81.9972 40.8067 81.8466 39.8178 81.8139 38.9561C81.7824 38.1258 81.8548 37.2856 82.1742 36.6338C82.3425 36.2906 82.6005 35.957 82.9867 35.7354C83.3808 35.5092 83.8174 35.4519 84.2416 35.5098C84.4529 35.5386 84.6662 35.5982 84.8823 35.6816C84.6372 32.5146 84.4605 29.8874 84.3979 28.6396C83.8442 17.5709 88.9964 7.66366 97.9145 3.02637C99.4643 2.22086 103.95 0.427007 112.215 0.000976562L112.241 0H112.306L112.332 0.000976562C120.597 0.427012 125.083 2.22006 126.633 3.02637L127.048 3.24707C135.574 7.89747 140.537 17.4346 140.172 28.1221L140.15 28.6396C140.088 29.8878 139.91 32.5151 139.664 35.6816C139.881 35.598 140.094 35.5387 140.306 35.5098C140.73 35.4518 141.167 35.5092 141.561 35.7354C141.947 35.9571 142.206 36.2905 142.374 36.6338C142.694 37.2856 142.765 38.1258 142.734 38.9561C142.701 39.8178 142.551 40.8067 142.314 41.8438C141.84 43.9189 141.002 46.2858 139.962 48.3926C138.936 50.4729 137.656 52.419 136.247 53.54C135.485 54.1458 134.965 54.7447 134.839 55.3604C134.659 56.2412 133.57 59.9285 132.238 62.8887C131.52 64.4844 130.707 66.1016 129.608 67.5635C129.561 69.768 129.605 72.235 130.404 74.6396C131.229 77.1235 132.875 79.5858 136.197 81.5762C139 83.256 143.243 84.3513 148.704 85.6455L150.094 85.9736L150.103 85.9756C153.43 86.7601 157.123 87.631 161.069 88.7568C169.208 90.6308 174.497 96.2866 177.915 102.848C181.319 109.381 182.919 116.9 183.675 122.764L183.689 122.831L184.406 129.045C185.596 139.43 187.927 160.055 188.728 169.021L188.907 171.16L188.908 171.176L188.909 171.192V171.197C188.909 171.201 188.909 171.206 188.91 171.214C188.91 171.229 188.911 171.253 188.913 171.283C188.915 171.344 188.92 171.435 188.926 171.553C188.939 171.789 188.959 172.133 188.988 172.563C189.045 173.424 189.137 174.628 189.279 175.992C189.563 178.738 190.038 182.078 190.799 184.614C192.364 189.831 194.164 194.608 196.583 200.362L197.144 201.721C199.818 208.349 200.645 212.55 201.733 218.08L202.062 219.745L202.067 219.773L202.071 219.802L207.826 260.925V260.927L207.978 262.031C208.165 263.383 208.687 264.674 209.543 265.755C210.13 266.495 210.613 266.854 211.238 267.316C212.106 267.959 213.108 268.708 214.573 270.58L214.872 270.97L214.889 270.993C217.597 274.814 218.97 277.657 220.424 280.665C221.338 282.555 222.282 284.509 223.619 286.842L224.217 287.865L224.238 287.9L224.255 287.937C224.572 288.582 224.669 289.275 224.356 289.906C224.065 290.491 223.533 290.787 223.143 290.938C222.736 291.095 222.318 291.159 222.03 291.188C221.88 291.204 221.752 291.21 221.66 291.213C221.613 291.214 221.575 291.216 221.546 291.216C221.532 291.216 221.52 291.216 221.511 291.216C221.507 291.216 221.503 291.215 221.5 291.215H221.494C219.511 291.223 217.888 289.7 216.676 288.145C215.808 287.03 215.027 285.731 214.354 284.529C214.377 284.679 214.401 284.842 214.428 285.017L214.71 286.652C214.819 287.266 214.942 287.945 215.075 288.68V288.682C215.075 288.683 215.076 288.684 215.077 288.687C215.077 288.689 215.077 288.693 215.078 288.696C215.238 289.586 215.413 290.553 215.594 291.576C215.599 291.598 215.603 291.62 215.607 291.64L215.608 291.644C215.613 291.668 215.617 291.69 215.622 291.71C215.627 291.734 215.629 291.759 215.632 291.783C215.674 292.02 215.715 292.26 215.758 292.503L215.759 292.504C216.02 293.992 216.569 297.53 217.051 300.684C217.293 302.263 217.519 303.75 217.684 304.843C217.767 305.389 217.834 305.836 217.881 306.147C217.905 306.303 217.923 306.424 217.935 306.507C217.941 306.548 217.945 306.58 217.949 306.602C217.95 306.612 217.952 306.62 217.953 306.625C217.953 306.628 217.953 306.63 217.954 306.632V306.634L217.955 306.642V306.645C217.956 306.646 217.956 306.648 217.956 306.649C217.957 306.652 217.957 306.656 217.957 306.66C217.959 306.669 217.96 306.681 217.961 306.694C217.965 306.722 217.969 306.758 217.973 306.803C217.981 306.892 217.989 307.016 217.992 307.164C217.997 307.455 217.983 307.863 217.891 308.298C217.709 309.156 217.15 310.363 215.638 310.631C214.937 310.755 214.312 310.651 213.787 310.379C213.277 310.114 212.922 309.723 212.682 309.362C212.442 309.002 212.294 308.638 212.205 308.375C212.161 308.241 212.129 308.126 212.108 308.042C212.097 308 212.09 307.964 212.084 307.938C212.082 307.924 212.079 307.913 212.078 307.904L212.077 307.901C212.076 307.9 212.076 307.898 212.076 307.896C212.074 307.889 212.073 307.878 212.07 307.864C212.064 307.837 212.055 307.795 212.044 307.741C212.022 307.634 211.991 307.477 211.95 307.276C211.868 306.875 211.75 306.3 211.609 305.608C211.455 304.855 211.273 303.963 211.078 303.002C211.413 305.851 211.713 308.373 211.828 309.265C211.978 310.435 211.998 311.624 211.665 312.588C211.493 313.087 211.215 313.559 210.782 313.925C210.343 314.295 209.806 314.504 209.206 314.566C208.287 314.663 207.532 314.347 206.966 313.846C206.43 313.37 206.08 312.744 205.848 312.192C205.613 311.631 205.471 311.073 205.388 310.665C205.346 310.459 205.317 310.286 205.299 310.161C205.29 310.099 205.284 310.048 205.28 310.012C205.278 309.994 205.276 309.979 205.275 309.968C205.275 309.966 205.274 309.965 205.274 309.963C205.273 309.955 205.272 309.943 205.27 309.927C205.266 309.895 205.259 309.846 205.251 309.784C205.235 309.659 205.212 309.476 205.182 309.242C205.122 308.775 205.036 308.108 204.933 307.307C204.727 305.704 204.453 303.564 204.177 301.419C203.964 299.758 203.75 298.091 203.567 296.665C203.614 297.233 203.665 297.83 203.715 298.435C203.972 301.537 204.244 304.892 204.295 305.813C204.346 306.721 204.375 308.038 204.048 309.155C203.882 309.724 203.601 310.32 203.111 310.778C202.597 311.259 201.927 311.519 201.136 311.516C200.247 311.512 199.586 311.054 199.141 310.515C198.713 309.995 198.439 309.352 198.26 308.791C198.077 308.218 197.97 307.656 197.908 307.245C197.876 307.038 197.856 306.863 197.843 306.739C197.837 306.677 197.832 306.627 197.83 306.592C197.828 306.574 197.827 306.56 197.827 306.55C197.826 306.545 197.826 306.54 197.826 306.537C197.825 306.535 197.825 306.533 197.825 306.532V306.527C197.824 306.52 197.823 306.508 197.822 306.493C197.819 306.463 197.816 306.418 197.812 306.359C197.803 306.242 197.79 306.069 197.773 305.85C197.74 305.41 197.692 304.782 197.634 304.027C197.546 302.863 197.434 301.396 197.316 299.854C197.319 300.497 197.328 301.043 197.348 301.437C197.42 302.851 197.211 304.019 196.691 304.866C196.139 305.765 195.272 306.235 194.297 306.213C193.147 306.187 192.364 305.478 191.922 304.657C191.493 303.86 191.327 302.878 191.344 301.967C191.374 300.429 191.08 294.304 190.803 290.09C190.489 285.298 190.47 284.096 190.469 283.604C190.214 279.277 190.137 276.224 190.069 273.538V273.531C190.018 271.533 189.972 269.747 189.864 267.782C189.859 267.695 189.865 267.591 189.868 267.55C189.871 267.49 189.876 267.415 189.881 267.332L189.922 266.628C189.964 265.769 189.995 264.486 189.88 263.148C189.856 262.87 189.795 262.583 189.705 262.288L186.614 252.16C185.778 250.278 184.985 248.589 184.188 246.896C181.939 242.114 179.699 237.349 176.601 228.36C174.185 221.349 172.331 215.731 171.081 211.865C170.457 209.932 169.983 208.437 169.665 207.425C169.507 206.919 169.386 206.533 169.306 206.273C169.266 206.144 169.236 206.046 169.216 205.98C169.206 205.948 169.198 205.923 169.193 205.906C169.19 205.898 169.188 205.891 169.187 205.887C169.186 205.885 169.186 205.883 169.186 205.882L169.185 205.881L169.18 205.862L169.175 205.845C167.667 200.155 164.288 182.674 163.234 177.222C163.234 177.22 163.233 177.219 163.233 177.217C163.232 177.215 163.232 177.213 163.232 177.211C163.138 176.727 163.063 176.337 163.009 176.059C162.982 175.919 162.96 175.808 162.944 175.728C162.936 175.687 162.93 175.655 162.925 175.631C162.923 175.619 162.921 175.609 162.919 175.603L162.917 175.594C162.342 172.992 161.679 169.974 161.022 166.987C160.307 173.787 159.586 180.985 159.027 187.338C158.292 195.684 157.848 202.46 158.033 205.024C158.458 210.943 160.124 216.982 161.978 223.688C163.416 228.891 164.959 234.47 166.064 240.598C168.809 255.823 169.613 271.016 170.36 286.043C170.889 296.694 168.645 307.538 166.508 317.885C165.739 321.61 164.983 325.272 164.366 328.86C161.4 346.102 156.368 372.304 154.292 383.11C154.012 384.572 153.785 385.752 153.624 386.59C153.544 387.009 153.481 387.342 153.436 387.582C153.413 387.702 153.396 387.797 153.383 387.868C153.377 387.904 153.371 387.932 153.368 387.954C153.366 387.965 153.364 387.973 153.363 387.979C153.362 387.986 153.362 387.989 153.362 387.989C152.43 393.946 152.863 399.708 153.348 406.108C153.965 414.248 154.656 423.317 152.556 434.717C150.801 444.245 147.954 453.865 145.246 463.021C142.79 471.324 140.453 479.232 139.099 486.428C137.744 493.634 137.401 500.006 138.847 505.261C139.209 506.576 140.429 509.509 141.858 512.934L141.862 512.941C142.445 514.339 143.056 515.804 143.643 517.244C144.574 519.528 145.631 522.967 146.114 524.949L146.33 525.874C146.819 528.087 147.121 530.659 145.69 532.93C145.125 533.827 142.715 537.391 138.435 539.942C135.506 541.688 133.352 542.651 131.91 543.179C131.188 543.443 130.644 543.599 130.269 543.689C130.082 543.735 129.937 543.764 129.833 543.782C129.782 543.791 129.74 543.798 129.708 543.803C129.693 543.805 129.68 543.807 129.669 543.809C129.664 543.809 129.66 543.809 129.656 543.81C129.654 543.81 129.652 543.81 129.651 543.811H129.648L129.647 543.812L129.646 543.811C127.631 544.087 125.151 543.696 123.352 542.285C121.875 541.127 120.671 539.4 119.784 537.741C118.893 536.075 118.27 534.382 118.001 533.208C117.384 530.51 117.371 527.783 117.361 526.02C117.358 525.594 117.356 525.235 117.347 524.937C117.274 522.531 117.028 520.128 116.772 517.633C116.635 516.296 116.496 514.933 116.381 513.543L116.367 513.529L116.344 513.128V513.126L116.34 513.057V513.054L116.339 513.03C116.339 513.029 116.338 513.026 116.338 513.024L116.336 512.98V512.976C116.273 512.117 116.208 509.778 116.143 507.443V507.436C116.106 506.114 116.07 504.78 116.033 503.682C116.024 503.412 116.009 503.119 115.993 502.796C115.94 501.749 115.874 500.433 115.962 498.929C115.991 498.435 116.054 497.949 116.122 497.49C116.202 496.954 116.251 496.593 116.317 496.08C117.702 485.162 116.669 473.893 115.54 461.63C114.725 452.778 113.864 443.426 113.864 433.419C113.864 424.857 114.966 419.096 116.012 413.621C117.204 407.387 118.324 401.524 117.721 392.144C117.083 382.208 116.644 372.756 116.208 363.382C115.433 346.695 114.669 330.248 112.812 311.684C112.684 310.406 112.488 307.13 112.274 303.321C112.06 307.13 111.864 310.406 111.736 311.684C109.879 330.249 109.114 346.695 108.339 363.383V363.387C107.904 372.759 107.465 382.21 106.827 392.144C106.224 401.524 107.344 407.387 108.536 413.622C109.582 419.097 110.684 424.858 110.684 433.419ZM115.864 433.419C115.864 443.321 116.716 452.584 117.532 461.446C118.656 473.664 119.719 485.158 118.301 496.332C118.234 496.861 118.182 497.235 118.1 497.784C118.035 498.22 117.983 498.639 117.959 499.046L117.958 499.047C117.877 500.43 117.938 501.647 117.991 502.696C118.007 503.016 118.022 503.325 118.032 503.614C118.069 504.718 118.106 506.055 118.142 507.373V507.382C118.192 509.191 118.241 510.938 118.288 512.02L118.332 512.857L118.333 512.873L118.334 512.89L118.336 512.93L118.337 512.949L118.343 512.999L118.437 514.116C118.536 515.23 118.65 516.331 118.762 517.43C119.017 519.912 119.27 522.386 119.346 524.875C119.356 525.203 119.358 525.591 119.361 526.009C119.371 527.789 119.39 530.307 119.952 532.761L120.05 533.151C120.317 534.118 120.829 535.455 121.547 536.798C122.372 538.34 123.419 539.797 124.586 540.712C125.86 541.711 127.765 542.056 129.395 541.827L129.408 541.825L129.413 541.824C129.413 541.824 129.414 541.825 129.417 541.824H129.419C129.429 541.823 129.451 541.819 129.482 541.813C129.544 541.802 129.649 541.782 129.797 541.746C130.095 541.674 130.567 541.541 131.222 541.301C132.533 540.821 134.574 539.915 137.412 538.224C141.301 535.905 143.506 532.643 143.997 531.863L144.099 531.694C145.104 529.937 144.757 527.831 144.17 525.423C143.707 523.52 142.678 520.177 141.79 517.999C141.207 516.568 140.6 515.111 140.016 513.713C140.016 513.713 140.016 513.712 140.015 513.711C140.015 513.71 140.014 513.707 140.013 513.705C138.619 510.363 137.324 507.266 136.918 505.792C135.351 500.097 135.759 493.365 137.133 486.059C138.509 478.743 140.879 470.731 143.328 462.454C146.041 453.279 148.857 443.761 150.589 434.354C152.638 423.231 151.97 414.39 151.354 406.26C150.871 399.897 150.412 393.903 151.385 387.68C151.419 387.464 151.771 385.635 152.329 382.733C154.405 371.921 159.433 345.74 162.395 328.521C163.019 324.895 163.781 321.2 164.549 317.48C166.587 307.61 168.654 297.565 168.418 287.714C155.298 294.369 140.214 296.128 125.886 292.64L113.524 289.629C113.524 289.631 113.525 289.632 113.525 289.634L113.897 296.402C114.234 302.64 114.607 309.534 114.802 311.485C116.665 330.11 117.431 346.606 118.206 363.289C118.642 372.665 119.08 382.1 119.717 392.015C120.336 401.656 119.177 407.721 117.977 413.997C116.935 419.447 115.864 425.055 115.864 433.419Z" fill="white"/>
</svg>
